mtllib model.mtl
v 1470.0    0.0     0.0
v 1358.0 -562.0     0.0
v 1039.0 -1039.0     0.0
v  562.0 -1358.0     0.0
v    0.0 -1470.0     0.0
v 1358.0 -487.0   281.0
v 1039.0 -900.0   519.0
v  562.0 -1176.0   679.0
v    0.0 -1273.0   735.0
v 1358.0 -281.0   487.0
v 1039.0 -519.0   900.0
v  562.0 -679.0  1176.0
v    0.0 -735.0  1273.0
v 1358.0    0.0   562.0
v 1039.0    0.0  1039.0
v  562.0    0.0  1358.0
v    0.0    0.0  1470.0
v 1358.0  281.0   487.0
v 1039.0  519.0   900.0
v  562.0  679.0  1176.0
v    0.0  735.0  1273.0
v 1358.0  487.0   281.0
v 1039.0  900.0   519.0
v  562.0 1176.0   679.0
v    0.0 1273.0   735.0
v 1358.0  562.0     0.0
v 1039.0 1039.0     0.0
v  562.0 1358.0     0.0
v    0.0 1470.0     0.0
v 1358.0  487.0  -281.0
v 1039.0  900.0  -519.0
v  562.0 1176.0  -679.0
v    0.0 1273.0  -735.0
v 1358.0  281.0  -487.0
v 1039.0  519.0  -900.0
v  562.0  679.0  -1176.0
v    0.0  735.0  -1273.0
v 1358.0    0.0  -562.0
v 1039.0    0.0  -1039.0
v  562.0    0.0  -1358.0
v    0.0    0.0  -1470.0
v 1358.0 -281.0  -487.0
v 1039.0 -519.0  -900.0
v  562.0 -679.0  -1176.0
v    0.0 -735.0  -1273.0
v 1358.0 -487.0  -281.0
v 1039.0 -900.0  -519.0
v  562.0 -1176.0  -679.0
v    0.0 -1273.0  -735.0
v -1470.0    0.0     0.0
v -1358.0 -562.0     0.0
v -1039.0 -1039.0     0.0
v -562.0 -1358.0     0.0
v -1358.0 -487.0   281.0
v -1039.0 -900.0   519.0
v -562.0 -1176.0   679.0
v -1358.0 -281.0   487.0
v -1039.0 -519.0   900.0
v -562.0 -679.0  1176.0
v -1358.0    0.0   562.0
v -1039.0    0.0  1039.0
v -562.0    0.0  1358.0
v -1358.0  281.0   487.0
v -1039.0  519.0   900.0
v -562.0  679.0  1176.0
v -1358.0  487.0   281.0
v -1039.0  900.0   519.0
v -562.0 1176.0   679.0
v -1358.0  562.0     0.0
v -1039.0 1039.0     0.0
v -562.0 1358.0     0.0
v -1358.0  487.0  -281.0
v -1039.0  900.0  -519.0
v -562.0 1176.0  -679.0
v -1358.0  281.0  -487.0
v -1039.0  519.0  -900.0
v -562.0  679.0  -1176.0
v -1358.0    0.0  -562.0
v -1039.0    0.0  -1039.0
v -562.0    0.0  -1358.0
v -1358.0 -281.0  -487.0
v -1039.0 -519.0  -900.0
v -562.0 -679.0  -1176.0
v -1358.0 -487.0  -281.0
v -1039.0 -900.0  -519.0
v -562.0 -1176.0  -679.0
vn 1.00000000 0.00000000  0.00000000
vn 0.92424644 -0.38179643  0.00000000
vn 0.67868667 -0.73304142  -0.04510742
vn 0.34596848 -0.93673345  -0.05325644
vn -0.03967442 -0.99778105  0.05346891
vn 0.92424624 -0.33064601  0.19089817
vn 0.70798659 -0.61758844  0.34254856
vn 0.38350640 -0.80299513  0.45620353
vn 0.00000000 -0.81811059  0.57506091
vn 0.90791065 -0.23517965  0.34697086
vn 0.70798924 -0.36357772  0.60544403
vn 0.38350495 -0.46731082  0.79658305
vn 0.00000000 -0.42097322  0.90707307
vn 0.90790891 -0.03018326  0.41807940
vn 0.70798510 -0.01211613  0.70612343
vn 0.38350635 -0.00640907  0.92351600
vn 0.00000000 0.08896167  0.99603505
vn 0.90791588 0.18287109  0.37715636
vn 0.70798659 0.34254856  0.61758844
vn 0.38350640 0.45620353  0.80299513
vn 0.00000000 0.57506091  0.81811059
vn 0.90791065 0.34697086  0.23517965
vn 0.70798924 0.60544403  0.36357772
vn 0.38350495 0.79658305  0.46731082
vn 0.00000000 0.90707307  0.42097322
vn 0.90790891 0.41807940  0.03018326
vn 0.70798510 0.70612343  0.01211613
vn 0.38350635 0.92351600  0.00640907
vn 0.00000000 0.99603505  -0.08896167
vn 0.90791588 0.37715636  -0.18287109
vn 0.67869103 0.65738847  -0.32744294
vn 0.34596460 0.83787157  -0.42223185
vn -0.03967443 0.83737464  -0.54518772
vn 0.90791065 0.23517965  -0.34697086
vn 0.67868316 0.40559849  -0.61227366
vn 0.34597038 0.51449971  -0.78459833
vn -0.03967463 0.45256550  -0.89084813
vn 0.90790891 0.03018326  -0.41807940
vn 0.67868667 0.04510742  -0.73304142
vn 0.34596848 0.05325644  -0.93673345
vn -0.03967442 -0.05346891  -0.99778105
vn 0.90791588 -0.18287109  -0.37715636
vn 0.67869103 -0.32744294  -0.65738847
vn 0.34596460 -0.42223185  -0.83787157
vn -0.03967443 -0.54518772  -0.83737464
vn 0.90791065 -0.34697086  -0.23517965
vn 0.67868316 -0.61227366  -0.40559849
vn 0.34597038 -0.78459833  -0.51449971
vn -0.03967463 -0.89084813  -0.45256550
vn -1.00000000 0.00000000  0.00000000
vn -0.90790891 -0.41807940  -0.03018326
vn -0.67868667 -0.73304142  -0.04510742
vn -0.34596848 -0.93673345  -0.05325644
vn -0.90791588 -0.37715636  0.18287109
vn -0.70798659 -0.61758844  0.34254856
vn -0.38350640 -0.80299513  0.45620353
vn -0.90791065 -0.23517965  0.34697086
vn -0.70798924 -0.36357772  0.60544403
vn -0.38350495 -0.46731082  0.79658305
vn -0.90790891 -0.03018326  0.41807940
vn -0.70798510 -0.01211613  0.70612343
vn -0.38350635 -0.00640907  0.92351600
vn -0.90791588 0.18287109  0.37715636
vn -0.70798659 0.34254856  0.61758844
vn -0.38350640 0.45620353  0.80299513
vn -0.90791065 0.34697086  0.23517965
vn -0.70798924 0.60544403  0.36357772
vn -0.38350495 0.79658305  0.46731082
vn -0.90790891 0.41807940  0.03018326
vn -0.70798510 0.70612343  0.01211613
vn -0.38350635 0.92351600  0.00640907
vn -0.90791588 0.37715636  -0.18287109
vn -0.67869103 0.65738847  -0.32744294
vn -0.34596460 0.83787157  -0.42223185
vn -0.90791065 0.23517965  -0.34697086
vn -0.67868316 0.40559849  -0.61227366
vn -0.34597038 0.51449971  -0.78459833
vn -0.90790891 0.03018326  -0.41807940
vn -0.67868667 0.04510742  -0.73304142
vn -0.34596848 0.05325644  -0.93673345
vn -0.90791588 -0.18287109  -0.37715636
vn -0.67869103 -0.32744294  -0.65738847
vn -0.34596460 -0.42223185  -0.83787157
vn -0.90791065 -0.34697086  -0.23517965
vn -0.67868316 -0.61227366  -0.40559849
vn -0.34597038 -0.78459833  -0.51449971
vt 0.018555 0.589844
vt 0.002441 0.388184
vt 0.117676 0.506348
vt 0.117676 0.506348
vt 0.002441 0.388184
vt 0.130371 0.378906
vt 0.002441 0.388184
vt 0.086914 0.196289
vt 0.130371 0.378906
vt 0.130371 0.378906
vt 0.086914 0.196289
vt 0.184570 0.267578
vt 0.086914 0.196289
vt 0.212402 0.052246
vt 0.184570 0.267578
vt 0.184570 0.267578
vt 0.212402 0.052246
vt 0.269043 0.169434
vt 0.212402 0.052246
vt 0.390137 0.008789
vt 0.269043 0.169434
vt 0.269043 0.169434
vt 0.390137 0.008789
vt 0.396484 0.138672
vt 0.390137 0.008789
vt 0.576660 0.048340
vt 0.396484 0.138672
vt 0.396484 0.138672
vt 0.576660 0.048340
vt 0.525879 0.170410
vt 0.576660 0.048340
vt 0.716797 0.161133
vt 0.525879 0.170410
vt 0.525879 0.170410
vt 0.716797 0.161133
vt 0.621582 0.259277
vt 0.117676 0.506348
vt 0.130371 0.378906
vt 0.275879 0.457520
vt 0.275879 0.457520
vt 0.130371 0.378906
vt 0.263184 0.392090
vt 0.130371 0.378906
vt 0.184570 0.267578
vt 0.263184 0.392090
vt 0.263184 0.392090
vt 0.184570 0.267578
vt 0.283691 0.329102
vt 0.184570 0.267578
vt 0.269043 0.169434
vt 0.283691 0.329102
vt 0.283691 0.329102
vt 0.269043 0.169434
vt 0.332520 0.283203
vt 0.269043 0.169434
vt 0.396484 0.138672
vt 0.332520 0.283203
vt 0.332520 0.283203
vt 0.396484 0.138672
vt 0.397461 0.269531
vt 0.396484 0.138672
vt 0.525879 0.170410
vt 0.397461 0.269531
vt 0.397461 0.269531
vt 0.525879 0.170410
vt 0.461426 0.288574
vt 0.525879 0.170410
vt 0.621582 0.259277
vt 0.461426 0.288574
vt 0.461426 0.288574
vt 0.621582 0.259277
vt 0.507324 0.336426
vt 0.771973 0.255859
vt 0.790039 0.435059
vt 0.638184 0.281738
vt 0.638184 0.281738
vt 0.790039 0.435059
vt 0.669922 0.410645
vt 0.790039 0.435059
vt 0.721191 0.612793
vt 0.669922 0.410645
vt 0.669922 0.410645
vt 0.721191 0.612793
vt 0.615723 0.536133
vt 0.721191 0.612793
vt 0.587402 0.737793
vt 0.615723 0.536133
vt 0.615723 0.536133
vt 0.587402 0.737793
vt 0.520020 0.625977
vt 0.587402 0.737793
vt 0.413574 0.788086
vt 0.520020 0.625977
vt 0.520020 0.625977
vt 0.413574 0.788086
vt 0.391602 0.658203
vt 0.413574 0.788086
vt 0.218750 0.747070
vt 0.391602 0.658203
vt 0.391602 0.658203
vt 0.218750 0.747070
vt 0.269043 0.627441
vt 0.218750 0.747070
vt 0.080078 0.642090
vt 0.269043 0.627441
vt 0.269043 0.627441
vt 0.080078 0.642090
vt 0.195313 0.537109
vt 0.638184 0.281738
vt 0.669922 0.410645
vt 0.511230 0.335449
vt 0.511230 0.335449
vt 0.669922 0.410645
vt 0.525879 0.399902
vt 0.669922 0.410645
vt 0.615723 0.536133
vt 0.525879 0.399902
vt 0.525879 0.399902
vt 0.615723 0.536133
vt 0.506836 0.463379
vt 0.615723 0.536133
vt 0.520020 0.625977
vt 0.506836 0.463379
vt 0.506836 0.463379
vt 0.520020 0.625977
vt 0.459961 0.510742
vt 0.520020 0.625977
vt 0.391602 0.658203
vt 0.459961 0.510742
vt 0.459961 0.510742
vt 0.391602 0.658203
vt 0.394531 0.526367
vt 0.391602 0.658203
vt 0.269043 0.627441
vt 0.394531 0.526367
vt 0.394531 0.526367
vt 0.269043 0.627441
vt 0.330566 0.508789
vt 0.269043 0.627441
vt 0.195313 0.537109
vt 0.330566 0.508789
vt 0.330566 0.508789
vt 0.195313 0.537109
vt 0.282715 0.462402
vt 0.394531 0.397461
vt 0.283691 0.329102
vt 0.332520 0.283203
vt 0.332520 0.283203
vt 0.283691 0.329102
vt 0.184570 0.267578
vt 0.080078 0.642090
vt 0.195313 0.537109
vt 0.218750 0.747070
vt 0.218750 0.747070
vt 0.195313 0.537109
vt 0.269043 0.627441
vt 0.195313 0.537109
vt 0.282715 0.462402
vt 0.269043 0.627441
vt 0.269043 0.627441
vt 0.282715 0.462402
vt 0.330566 0.508789
vt 0.282715 0.462402
vt 0.394531 0.397461
vt 0.330566 0.508789
vt 0.330566 0.508789
vt 0.394531 0.397461
vt 0.394531 0.526367
vt 0.394531 0.397461
vt 0.459961 0.510742
vt 0.394531 0.526367
vt 0.394531 0.526367
vt 0.459961 0.510742
vt 0.520020 0.625977
vt 0.459961 0.510742
vt 0.615723 0.536133
vt 0.520020 0.625977
vt 0.520020 0.625977
vt 0.615723 0.536133
vt 0.721191 0.612793
vt 0.615723 0.536133
vt 0.790039 0.435059
vt 0.721191 0.612793
vt 0.716797 0.161133
vt 0.621582 0.259277
vt 0.576660 0.048340
vt 0.576660 0.048340
vt 0.621582 0.259277
vt 0.525879 0.170410
vt 0.621582 0.259277
vt 0.507324 0.336426
vt 0.525879 0.170410
vt 0.525879 0.170410
vt 0.507324 0.336426
vt 0.461426 0.288574
vt 0.507324 0.336426
vt 0.394531 0.397461
vt 0.461426 0.288574
vt 0.461426 0.288574
vt 0.394531 0.397461
vt 0.397461 0.269531
vt 0.394531 0.397461
vt 0.332520 0.283203
vt 0.397461 0.269531
vt 0.397461 0.269531
vt 0.332520 0.283203
vt 0.269043 0.169434
vt 0.332520 0.283203
vt 0.184570 0.267578
vt 0.269043 0.169434
vt 0.269043 0.169434
vt 0.184570 0.267578
vt 0.086914 0.196289
vt 0.184570 0.267578
vt 0.002441 0.388184
vt 0.086914 0.196289
vt 0.086914 0.196289
vt 0.212402 0.052246
vt 0.269043 0.169434
vt 0.269043 0.169434
vt 0.212402 0.052246
vt 0.396484 0.138672
vt 0.212402 0.052246
vt 0.390137 0.008789
vt 0.396484 0.138672
vt 0.396484 0.138672
vt 0.390137 0.008789
vt 0.525879 0.170410
vt 0.390137 0.008789
vt 0.576660 0.048340
vt 0.525879 0.170410
vt 0.721191 0.612793
vt 0.587402 0.737793
vt 0.520020 0.625977
vt 0.520020 0.625977
vt 0.587402 0.737793
vt 0.391602 0.658203
vt 0.587402 0.737793
vt 0.413574 0.788086
vt 0.391602 0.658203
vt 0.391602 0.658203
vt 0.413574 0.788086
vt 0.269043 0.627441
vt 0.413574 0.788086
vt 0.218750 0.747070
vt 0.269043 0.627441
vt 0.275879 0.457520
vt 0.263184 0.392090
vt 0.394531 0.397461
vt 0.394531 0.397461
vt 0.263184 0.392090
vt 0.283691 0.329102
vt 0.263184 0.392090
vt 0.130371 0.378906
vt 0.283691 0.329102
vt 0.283691 0.329102
vt 0.130371 0.378906
vt 0.184570 0.267578
vt 0.130371 0.378906
vt 0.002441 0.388184
vt 0.184570 0.267578
vt 0.394531 0.397461
vt 0.506836 0.463379
vt 0.459961 0.510742
vt 0.459961 0.510742
vt 0.506836 0.463379
vt 0.615723 0.536133
vt 0.506836 0.463379
vt 0.669922 0.410645
vt 0.615723 0.536133
vt 0.615723 0.536133
vt 0.669922 0.410645
vt 0.790039 0.435059
vt 0.669922 0.410645
vt 0.771973 0.255859
vt 0.790039 0.435059
vt 0.617676 0.990234
vt 0.617676 0.747070
vt 0.810547 0.990234
vt 0.810547 0.990234
vt 0.617676 0.747070
vt 0.810547 0.747070
vt 0.617676 0.747070
vt 0.617676 0.990234
vt 0.810547 0.747070
vt 0.810547 0.747070
vt 0.617676 0.990234
vt 0.810547 0.990234
vt 0.617676 0.747070
vt 0.617676 0.990234
vt 0.810547 0.747070
vt 0.810547 0.747070
vt 0.617676 0.990234
vt 0.810547 0.990234
vt 0.617676 0.990234
vt 0.617676 0.747070
vt 0.810547 0.990234
vt 0.810547 0.990234
vt 0.617676 0.747070
vt 0.810547 0.747070
vt 0.002441 0.388184
vt 0.130371 0.378906
vt 0.018555 0.589844
vt 0.018555 0.589844
vt 0.130371 0.378906
vt 0.117676 0.506348
vt 0.130371 0.378906
vt 0.263184 0.392090
vt 0.117676 0.506348
vt 0.117676 0.506348
vt 0.263184 0.392090
vt 0.275879 0.457520
vt 0.771973 0.255859
vt 0.669922 0.410645
vt 0.638184 0.281738
vt 0.638184 0.281738
vt 0.669922 0.410645
vt 0.525879 0.399902
vt 0.669922 0.410645
vt 0.506836 0.463379
vt 0.525879 0.399902
vt 0.525879 0.399902
vt 0.506836 0.463379
vt 0.394531 0.397461
vt 0.282715 0.462402
vt 0.394531 0.397461
vt 0.330566 0.508789
vt 0.330566 0.508789
vt 0.394531 0.397461
vt 0.394531 0.526367
vt 0.394531 0.397461
vt 0.459961 0.510742
vt 0.394531 0.526367
vt 0.459961 0.510742
vt 0.394531 0.397461
vt 0.506836 0.463379
vt 0.506836 0.463379
vt 0.394531 0.397461
vt 0.525879 0.399902
vt 0.394531 0.397461
vt 0.511230 0.335449
vt 0.525879 0.399902
vt 0.507324 0.336426
vt 0.394531 0.397461
vt 0.461426 0.288574
vt 0.461426 0.288574
vt 0.394531 0.397461
vt 0.397461 0.269531
vt 0.394531 0.397461
vt 0.332520 0.283203
vt 0.397461 0.269531
vt 0.332520 0.283203
vt 0.394531 0.397461
vt 0.283691 0.329102
vt 0.283691 0.329102
vt 0.394531 0.397461
vt 0.263184 0.392090
vt 0.394531 0.397461
vt 0.275879 0.457520
vt 0.263184 0.392090
vt 0.520020 0.625977
vt 0.391602 0.658203
vt 0.394531 0.526367
vt 0.394531 0.526367
vt 0.391602 0.658203
vt 0.330566 0.508789
vt 0.391602 0.658203
vt 0.269043 0.627441
vt 0.330566 0.508789
vt 0.269043 0.169434
vt 0.396484 0.138672
vt 0.397461 0.269531
vt 0.397461 0.269531
vt 0.396484 0.138672
vt 0.461426 0.288574
vt 0.396484 0.138672
vt 0.525879 0.170410
vt 0.461426 0.288574
vt 0.998535 0.990234
vt 0.810547 0.990234
vt 0.998535 0.747070
vt 0.998535 0.747070
vt 0.810547 0.990234
vt 0.810547 0.747070
vt 0.810547 0.990234
vt 0.617676 0.747070
vt 0.810547 0.747070
vt 0.998535 0.990234
vt 0.810547 0.990234
vt 0.998535 0.747070
vt 0.998535 0.747070
vt 0.810547 0.990234
vt 0.810547 0.747070
vt 0.810547 0.990234
vt 0.617676 0.747070
vt 0.810547 0.747070
vt 0.998535 0.990234
vt 0.810547 0.990234
vt 0.998535 0.747070
vt 0.998535 0.747070
vt 0.810547 0.990234
vt 0.810547 0.747070
vt 0.810547 0.990234
vt 0.617676 0.747070
vt 0.810547 0.747070
vt 0.998535 0.990234
vt 0.810547 0.990234
vt 0.998535 0.747070
vt 0.998535 0.747070
vt 0.810547 0.990234
vt 0.810547 0.747070
vt 0.810547 0.990234
vt 0.617676 0.747070
vt 0.810547 0.747070
vt 0.998535 0.747070
vt 0.810547 0.747070
vt 0.998535 0.990234
vt 0.998535 0.990234
vt 0.810547 0.747070
vt 0.810547 0.990234
vt 0.810547 0.747070
vt 0.617676 0.990234
vt 0.810547 0.990234
vt 0.998535 0.747070
vt 0.810547 0.747070
vt 0.998535 0.990234
vt 0.998535 0.990234
vt 0.810547 0.747070
vt 0.810547 0.990234
vt 0.810547 0.747070
vt 0.617676 0.990234
vt 0.810547 0.990234
vt 0.998535 0.747070
vt 0.810547 0.747070
vt 0.998535 0.990234
vt 0.998535 0.990234
vt 0.810547 0.747070
vt 0.810547 0.990234
vt 0.810547 0.747070
vt 0.617676 0.990234
vt 0.810547 0.990234
vt 0.998535 0.747070
vt 0.810547 0.747070
vt 0.998535 0.990234
vt 0.998535 0.990234
vt 0.810547 0.747070
vt 0.810547 0.990234
vt 0.810547 0.747070
vt 0.617676 0.990234
vt 0.810547 0.990234
vt 0.810547 0.990234
vt 0.810547 0.747070
vt 0.998535 0.747070
vt 0.998535 0.747070
vt 0.810547 0.747070
vt 0.998535 0.990234
vt 0.810547 0.747070
vt 0.810547 0.990234
vt 0.998535 0.990234
vt 0.810547 0.747070
vt 0.810547 0.990234
vt 0.998535 0.990234
vt 0.998535 0.990234
vt 0.810547 0.990234
vt 0.998535 0.747070
vt 0.810547 0.990234
vt 0.810547 0.747070
vt 0.998535 0.747070
vt 0.394531 0.397461
vt 0.511230 0.335449
vt 0.525879 0.399902
vt 0.525879 0.399902
vt 0.511230 0.335449
vt 0.638184 0.281738
vt 0.617676 0.747070
vt 0.810547 0.990234
vt 0.617676 0.990234
vt 0.617676 0.747070
vt 0.810547 0.990234
vt 0.617676 0.990234
vt 0.617676 0.747070
vt 0.810547 0.990234
vt 0.617676 0.990234
vt 0.617676 0.747070
vt 0.810547 0.990234
vt 0.617676 0.990234
vt 0.617676 0.990234
vt 0.810547 0.747070
vt 0.617676 0.747070
vt 0.617676 0.990234
vt 0.810547 0.747070
vt 0.617676 0.747070
vt 0.617676 0.990234
vt 0.810547 0.747070
vt 0.617676 0.747070
vt 0.617676 0.990234
vt 0.810547 0.747070
vt 0.617676 0.747070
vt 0.810547 0.990234
vt 0.998535 0.747070
vt 0.998535 0.990234
vt 0.810547 0.747070
vt 0.998535 0.990234
vt 0.998535 0.747070
g obj0
usemtl mat0
f 4/1/4 48/2/48 3/3/3
f 3/4/3 48/5/48 47/6/47
f 48/7/48 44/8/44 47/9/47
f 47/10/47 44/11/44 43/12/43
f 44/13/44 40/14/40 43/15/43
f 43/16/43 40/17/40 39/18/39
f 40/19/40 36/20/36 39/21/39
f 39/22/39 36/23/36 35/24/35
f 36/25/36 32/26/32 35/27/35
f 35/28/35 32/29/32 31/30/31
f 32/31/32 28/32/28 31/33/31
f 31/34/31 28/35/28 27/36/27
f 3/37/3 47/38/47 2/39/2
f 2/40/2 47/41/47 46/42/46
f 47/43/47 43/44/43 46/45/46
f 46/46/46 43/47/43 42/48/42
f 43/49/43 39/50/39 42/51/42
f 42/52/42 39/53/39 38/54/38
f 39/55/39 35/56/35 38/57/38
f 38/58/38 35/59/35 34/60/34
f 35/61/35 31/62/31 34/63/34
f 34/64/34 31/65/31 30/66/30
f 31/67/31 27/68/27 30/69/30
f 30/70/30 27/71/27 26/72/26
f 28/73/28 24/74/24 27/75/27
f 27/76/27 24/77/24 23/78/23
f 24/79/24 20/80/20 23/81/23
f 23/82/23 20/83/20 19/84/19
f 20/85/20 16/86/16 19/87/19
f 19/88/19 16/89/16 15/90/15
f 16/91/16 12/92/12 15/93/15
f 15/94/15 12/95/12 11/96/11
f 12/97/12 8/98/8 11/99/11
f 11/100/11 8/101/8 7/102/7
f 8/103/8 4/104/4 7/105/7
f 7/106/7 4/107/4 3/108/3
f 27/109/27 23/110/23 26/111/26
f 26/112/26 23/113/23 22/114/22
f 23/115/23 19/116/19 22/117/22
f 22/118/22 19/119/19 18/120/18
f 19/121/19 15/122/15 18/123/18
f 18/124/18 15/125/15 14/126/14
f 15/127/15 11/128/11 14/129/14
f 14/130/14 11/131/11 10/132/10
f 11/133/11 7/134/7 10/135/10
f 10/136/10 7/137/7 6/138/6
f 7/139/7 3/140/3 6/141/6
f 6/142/6 3/143/3 2/144/2
f 50/145/50 57/146/57 60/147/60
f 60/148/60 57/149/57 58/150/58
f 53/151/53 52/152/52 86/153/86
f 86/154/86 52/155/52 85/156/85
f 52/157/52 51/158/51 85/159/85
f 85/160/85 51/161/51 84/162/84
f 51/163/51 50/164/50 84/165/84
f 84/166/84 50/167/50 81/168/81
f 50/169/50 78/170/78 81/171/81
f 81/172/81 78/173/78 79/174/79
f 78/175/78 76/176/76 79/177/79
f 79/178/79 76/179/76 77/180/77
f 76/181/76 74/182/74 77/183/77
f 71/184/71 70/185/70 68/186/68
f 68/187/68 70/188/70 67/189/67
f 70/190/70 69/191/69 67/192/67
f 67/193/67 69/194/69 66/195/66
f 69/196/69 50/197/50 66/198/66
f 66/199/66 50/200/50 63/201/63
f 50/202/50 60/203/60 63/204/63
f 63/205/63 60/206/60 61/207/61
f 60/208/60 58/209/58 61/210/61
f 61/211/61 58/212/58 59/213/59
f 58/214/58 56/215/56 59/216/59
f 59/217/59 62/218/62 61/219/61
f 61/220/61 62/221/62 64/222/64
f 62/223/62 65/224/65 64/225/64
f 64/226/64 65/227/65 67/228/67
f 65/229/65 68/230/68 67/231/67
f 77/232/77 80/233/80 79/234/79
f 79/235/79 80/236/80 82/237/82
f 80/238/80 83/239/83 82/240/82
f 82/241/82 83/242/83 85/243/85
f 83/244/83 86/245/86 85/246/85
f 51/247/51 54/248/54 50/249/50
f 50/250/50 54/251/54 57/252/57
f 54/253/54 55/254/55 57/255/57
f 57/256/57 55/257/55 58/258/58
f 55/259/55 56/260/56 58/261/58
f 50/262/50 75/263/75 78/264/78
f 78/265/78 75/266/75 76/267/76
f 75/268/75 73/269/73 76/270/76
f 76/271/76 73/272/73 74/273/74
f 73/274/73 71/275/71 74/276/74
f 48/277/48 4/278/4 49/279/49
f 49/280/49 4/281/4 5/282/5
f 4/283/4 8/284/8 5/285/5
f 5/286/5 8/287/8 9/288/9
f 24/289/24 28/290/28 25/291/25
f 25/292/25 28/293/28 29/294/29
f 28/295/28 32/296/32 29/297/29
f 29/298/29 32/299/32 33/300/33
f 56/301/56 55/302/55 53/303/53
f 53/304/53 55/305/55 52/306/52
f 55/307/55 54/308/54 52/309/52
f 52/310/52 54/311/54 51/312/51
f 71/313/71 73/314/73 70/315/70
f 70/316/70 73/317/73 72/318/72
f 73/319/73 75/320/75 72/321/72
f 72/322/72 75/323/75 50/324/50
f 2/325/2 1/326/1 6/327/6
f 6/328/6 1/329/1 10/330/10
f 1/331/1 14/332/14 10/333/10
f 14/334/14 1/335/1 18/336/18
f 18/337/18 1/338/1 22/339/22
f 1/340/1 26/341/26 22/342/22
f 26/343/26 1/344/1 30/345/30
f 30/346/30 1/347/1 34/348/34
f 1/349/1 38/350/38 34/351/34
f 38/352/38 1/353/1 42/354/42
f 42/355/42 1/356/1 46/357/46
f 1/358/1 2/359/2 46/360/46
f 79/361/79 82/362/82 81/363/81
f 81/364/81 82/365/82 84/366/84
f 82/367/82 85/368/85 84/369/84
f 61/370/61 64/371/64 63/372/63
f 63/373/63 64/374/64 66/375/66
f 64/376/64 67/377/67 66/378/66
f 80/379/80 41/380/41 83/381/83
f 83/382/83 41/383/41 45/384/45
f 41/385/41 44/386/44 45/387/45
f 77/388/77 37/389/37 80/390/80
f 80/391/80 37/392/37 41/393/41
f 37/394/37 40/395/40 41/396/41
f 74/397/74 33/398/33 77/399/77
f 77/400/77 33/401/33 37/402/37
f 33/403/33 36/404/36 37/405/37
f 83/406/83 45/407/45 86/408/86
f 86/409/86 45/410/45 49/411/49
f 45/412/45 48/413/48 49/414/49
f 56/415/56 9/416/9 59/417/59
f 59/418/59 9/419/9 13/420/13
f 9/421/9 12/422/12 13/423/13
f 59/424/59 13/425/13 62/426/62
f 62/427/62 13/428/13 17/429/17
f 13/430/13 16/431/16 17/432/17
f 62/433/62 17/434/17 65/435/65
f 65/436/65 17/437/17 21/438/21
f 17/439/17 20/440/20 21/441/21
f 65/442/65 21/443/21 68/444/68
f 68/445/68 21/446/21 25/447/25
f 21/448/21 24/449/24 25/450/25
f 49/451/49 5/452/5 53/453/53
f 53/454/53 5/455/5 56/456/56
f 5/457/5 9/458/9 56/459/56
f 25/460/25 29/461/29 71/462/71
f 71/463/71 29/464/29 74/465/74
f 29/466/29 33/467/33 74/468/74
f 50/469/50 69/470/69 72/471/72
f 72/472/72 69/473/69 70/474/70
f 44/475/44 41/476/41 40/477/40
f 40/478/40 37/479/37 36/480/36
f 36/481/36 33/482/33 32/483/32
f 48/484/48 45/485/45 44/486/44
f 12/487/12 9/488/9 8/489/8
f 16/490/16 13/491/13 12/492/12
f 20/493/20 17/494/17 16/495/16
f 24/496/24 21/497/21 20/498/20
f 49/499/49 53/500/53 86/501/86
f 25/502/25 71/503/71 68/504/68
